HIERARCHY
ROOT Hips
{
	OFFSET 0.000000 0.000000 0.000000
	CHANNELS 6 Xposition Yposition Zposition Zrotation Yrotation Xrotation 
	JOINT LHipJoint
	{
		OFFSET 0.000000 0.000000 0.000000
		CHANNELS 3 Zrotation Yrotation Xrotation
		JOINT LeftUpLeg
		{
			OFFSET 1.363060 -1.794630 0.839290
			CHANNELS 3 Zrotation Yrotation Xrotation
			JOINT LeftLeg
			{
				OFFSET 2.448110 -6.726130 0.000000
				CHANNELS 3 Zrotation Yrotation Xrotation
				JOINT LeftFoot
				{
					OFFSET 2.562200 -7.039590 0.000000
					CHANNELS 3 Zrotation Yrotation Xrotation
					JOINT LeftToeBase
					{
						OFFSET 0.157640 -0.433110 2.322550
						CHANNELS 3 Zrotation Yrotation Xrotation
						End Site
						{
							OFFSET 0.000000 0.000000 0.000000
						}
					}
				}
			}
		}
	}
	JOINT RHipJoint
	{
		OFFSET 0.000000 0.000000 0.000000
		CHANNELS 3 Zrotation Yrotation Xrotation
		JOINT RightUpLeg
		{
			OFFSET -1.305520 -1.794630 0.839290
			CHANNELS 3 Zrotation Yrotation Xrotation
			JOINT RightLeg
			{
				OFFSET -2.542530 -6.985550 0.000000
				CHANNELS 3 Zrotation Yrotation Xrotation
				JOINT RightFoot
				{
					OFFSET -2.568260 -7.056230 0.000000
					CHANNELS 3 Zrotation Yrotation Xrotation
					JOINT RightToeBase
					{
						OFFSET -0.164730 -0.452590 2.363150
						CHANNELS 3 Zrotation Yrotation Xrotation
						End Site
						{
							OFFSET 0.000000 0.000000 0.000000
						}
					}
				}
			}
		}
	}
}
MOTION
Frames: 11
Frame Time: 0.008333
3.215857 16.935023 -3.500807 -177.871503 44.890724 -157.845306 -9.801203 -0.691175 0.140904 -15.936852 2.991079 -44.162435 -2.955684 -0.103266 14.915892 1.358519 7.178910 -2.011628 1.215300 -0.000000 -11.616400 10.152621 -2.358548 -5.119723 4.501428 -18.009657 -14.178516 1.344135 -2.921273 36.047351 0.186384 6.121883 13.082566 2.027700 0.000000 -91.364800
3.296560 16.907473 -3.618417 -178.275783 44.812400 -158.138549 -9.703850 -0.583548 0.097598 -16.386120 2.780885 -44.590894 -2.920578 0.094660 16.792235 1.376699 7.300996 -1.910936 1.242800 0.000000 -10.409400 10.391615 -2.270172 -5.065387 3.506109 -18.254706 -14.785541 1.208049 -3.045784 37.705331 0.192851 7.323910 14.345912 2.620000 -0.000000 -92.160900
3.374444 16.883104 -3.733476 -178.699027 44.702825 -158.443463 -9.605864 -0.493376 0.040798 -16.827599 2.535020 -44.970848 -2.878960 0.281691 18.679216 1.407877 7.430859 -2.088076 1.227900 -0.000000 -9.511500 10.608837 -2.168429 -5.001462 2.534316 -18.344517 -15.376319 1.066746 -3.163962 39.352163 0.180359 8.516233 15.701852 3.271100 0.000000 -92.624100
3.448759 16.862335 -3.846151 -179.121726 44.567059 -158.752021 -9.512920 -0.423099 -0.031095 -17.243977 2.266525 -45.265489 -2.832924 0.451997 20.513857 1.451811 7.572589 -2.528287 1.171200 0.000001 -8.924600 10.798418 -2.057161 -4.930835 1.608909 -18.270205 -15.934683 0.922284 -3.274726 40.974882 0.149768 9.668347 17.125001 3.969300 -0.000000 -92.619900
3.518837 16.845473 -3.956760 -179.521103 44.411227 -159.051989 -9.430871 -0.373930 -0.118529 -17.618214 1.992142 -45.449125 -2.785192 0.601388 22.239192 1.506916 7.725314 -3.196567 1.075600 0.000000 -8.628400 10.955411 -1.941231 -4.856170 0.755699 -18.029562 -16.451190 0.776806 -3.377117 42.562704 0.102730 10.737070 18.581552 4.690699 -0.000000 -92.110800
3.584147 16.832709 -4.065834 -179.870153 44.241265 -159.325671 -9.365745 -0.346234 -0.220286 -17.932571 1.729427 -45.510168 -2.738023 0.727679 23.810189 1.570577 7.884553 -4.042622 0.946100 0.000000 -8.589700 11.075631 -1.826221 -4.779744 0.002610 -17.626853 -16.923467 0.632144 -3.470341 44.107476 0.041384 11.666711 20.033154 5.398299 0.000000 -91.048500
3.644653 16.824115 -4.173717 179.838102 44.063482 -159.571162 -9.319007 -0.337218 -0.334178 -18.185761 1.487997 -45.434527 -2.693927 0.828855 25.183586 1.640286 8.051830 -5.001055 0.791700 0.000000 -8.767200 11.161069 -1.714823 -4.704450 -0.646226 -17.085208 -17.353753 0.489947 -3.554721 45.603052 -0.032389 12.405536 21.448517 6.050600 0.000000 -89.499000
3.700358 16.819640 -4.280935 179.624072 43.884334 -159.771597 -9.294886 -0.345472 -0.456368 -18.364393 1.282144 -45.234552 -2.653361 0.906397 26.343485 1.711960 8.218518 -6.007271 0.621400 0.000000 -9.109199 11.210429 -1.611647 -4.631289 -1.169312 -16.419784 -17.751729 0.350661 -3.630495 47.052800 -0.116143 12.887819 22.776591 6.589600 0.000000 -87.313600
3.751729 16.819130 -4.387831 179.488930 43.708318 -159.925130 -9.292836 -0.367372 -0.582731 -18.471332 1.116293 -44.918562 -2.616537 0.961517 27.278732 1.782199 8.382689 -6.996036 0.446400 0.000000 -9.555600 11.227903 -1.517745 -4.561488 -1.569825 -15.661110 -18.127608 0.214677 -3.698319 48.452572 -0.209051 13.059024 23.986677 6.963000 -0.000000 -84.626000
3.799414 16.822358 -4.494607 179.429477 43.539081 -160.031142 -9.311176 -0.399184 -0.708834 -18.512373 0.992415 -44.503354 -2.582969 0.996544 27.993120 1.847484 8.540123 -7.911348 0.277500 -0.000000 -10.040300 11.218413 -1.433308 -4.494721 -1.854377 -14.838137 -18.493104 0.081939 -3.758696 49.797391 -0.311277 12.871675 25.051723 7.122700 0.000000 -81.607599
3.844283 16.829034 -4.601322 179.436549 43.378737 -160.091949 -9.346692 -0.437054 -0.830521 -18.497518 0.908835 -44.009703 -2.551927 1.014239 28.500643 1.905010 8.687375 -8.710950 0.123900 0.000000 -10.499100 11.187762 -1.357162 -4.429821 -2.036416 -13.977902 -18.859314 -0.047738 -3.812023 51.081049 -0.423812 12.292998 25.947618 7.031800 -0.000000 -78.434600
